<svg width="495" height="634" viewBox="0 0 495 634" fill="none" xmlns="http://www.w3.org/2000/svg">
<g clip-path="url(#clip0_29001_13)">
<path d="M242.437 0H252.55C260.71 0.102953 268.822 0.947165 276.935 1.71416C309.911 5.63151 342.089 16.215 370.831 32.8316C419.084 60.4229 457.564 104.734 477.76 156.478C479.246 155.726 478.843 157.142 478.188 157.451C487.327 180.811 492.825 205.597 494.378 230.629C495.693 246.932 494.801 263.327 492.856 279.537C490.927 293.616 487.9 307.551 483.624 321.109C470.581 362.764 446.104 400.754 413.659 429.987C378.583 461.933 334.053 483.414 287.147 490.806C254.613 496.093 221.023 494.801 188.99 487.043C155.683 478.977 124.027 463.956 96.9505 442.959C96.8731 442.707 96.7287 442.197 96.6514 441.94C96.3368 441.93 95.7024 441.904 95.3878 441.894C91.2515 438.568 87.1307 435.217 83.1853 431.676C54.2263 406.056 31.4098 373.569 17.2114 337.633C16.8503 337.551 16.4893 337.463 16.1334 337.381C16.3294 337.227 16.7214 336.928 16.9174 336.774C10.5325 320.682 5.99908 303.86 3.23985 286.775C1.67199 278.271 1.12015 269.638 0.382632 261.037C-1.57204 225.791 3.96705 190.112 16.8916 157.24C28.3153 127.898 45.5257 100.832 67.1096 77.8889C90.7874 52.7118 119.803 32.5331 151.717 19.1904C180.367 7.09344 211.358 0.725816 242.437 0ZM227.465 37.0372C206.262 39.1375 185.323 44.2954 165.725 52.6655C136.859 64.8448 110.87 83.6799 90.1685 107.158C70.0338 129.947 54.9793 157.188 46.4489 186.355C46.1858 186.854 46.0156 187.379 45.9331 187.945C35.2211 225.909 35.3449 266.853 46.6397 304.673C55.5311 334.725 71.3748 362.692 92.5254 385.831C115.321 410.91 144.306 430.389 176.251 441.832C227.037 460.348 285.053 458.093 334.188 435.541C380.47 414.709 418.486 376.374 438.976 330.015C451.292 302.599 457.265 272.469 456.991 242.459C456.62 237.872 456.862 233.244 456.243 228.673C455.253 214.517 452.618 200.49 448.729 186.844C443.659 169.81 436.609 153.333 427.413 138.096C409.135 107.416 382.786 81.6209 351.78 63.841C326.513 49.2886 298.137 40.1773 269.126 37.2328C255.289 35.8275 241.318 35.8636 227.465 37.0372Z" fill="#49965B"/>
<path d="M109.504 335.955C109.576 265.777 109.473 195.6 109.555 125.427C201.827 125.484 294.093 125.417 386.365 125.458C386.37 183.678 386.365 241.892 386.365 300.112C386.401 312.05 386.298 323.992 386.417 335.935C294.114 336.012 201.811 335.971 109.504 335.955ZM142.97 160.714C142.975 207.11 142.991 253.506 142.96 299.896C212.307 299.881 281.654 299.906 351.006 299.886C351.052 253.49 351.001 207.1 351.026 160.704C281.674 160.761 212.322 160.74 142.97 160.714Z" fill="#1F2935"/>
<path d="M187.809 355.871C216.469 355.727 245.144 355.851 273.809 355.81C284.578 355.866 295.362 355.701 306.126 355.892C312.335 358.986 315.538 366.795 313.341 373.363C312.088 377.074 309.406 380.42 305.77 382.006C266.759 382.083 227.738 382.001 188.727 382.047C181.904 381.223 176.504 374.341 177.386 367.52C177.938 361.961 182.337 357.035 187.809 355.871Z" fill="#1F2935"/>
<path d="M292.459 186.401C298.441 184.898 305.636 187.189 308.581 192.866C311.113 198.045 310.149 204.701 306.389 209.061C291.711 224.396 277.074 239.777 262.37 255.086C258.672 259.302 254.459 263.044 250.828 267.322C248.471 269.443 246.537 271.986 244.128 274.055C240.637 276.932 236.078 278.719 231.508 278.219C225.788 277.751 221.234 273.823 217.753 269.577C211.291 262.802 204.813 256.038 198.392 249.223C195.323 245.83 191.935 242.732 188.949 239.267C186.53 237.563 186.133 234.382 186.226 231.654C186.056 226.681 189.222 221.842 193.792 219.897C197.784 217.971 202.75 218.219 206.515 220.53C214.813 228.38 222.983 236.369 231.255 244.25C232.137 244.775 232.705 243.658 233.225 243.143C242.72 233.244 252.556 223.654 262.086 213.781C269.838 205.9 277.605 198.024 285.393 190.174C287.291 188.213 289.87 187.127 292.459 186.401Z" fill="#49965B"/>
<path d="M38.79 634H18.675C16.965 634 15.705 633.64 14.895 632.92C14.175 632.11 13.815 630.85 13.815 629.14V541.66C13.815 539.95 14.175 538.735 14.895 538.015C15.705 537.205 16.965 536.8 18.675 536.8H40.41C41.85 536.8 43.02 537.115 43.92 537.745C44.91 538.375 45.81 539.41 46.62 540.85L58.77 562.855C59.22 563.665 59.58 564.25 59.85 564.61C60.21 564.97 60.66 565.15 61.2 565.15H62.415C62.955 565.15 63.36 564.97 63.63 564.61C63.99 564.25 64.395 563.665 64.845 562.855L76.86 540.85C77.67 539.41 78.525 538.375 79.425 537.745C80.415 537.115 81.63 536.8 83.07 536.8H104.94C106.65 536.8 107.865 537.205 108.585 538.015C109.395 538.735 109.8 539.95 109.8 541.66V629.14C109.8 630.85 109.395 632.11 108.585 632.92C107.865 633.64 106.65 634 104.94 634H84.15C82.44 634 81.18 633.64 80.37 632.92C79.65 632.11 79.29 630.85 79.29 629.14V581.62L71.325 596.335C70.515 597.865 69.525 598.99 68.355 599.71C67.275 600.34 65.88 600.655 64.17 600.655H58.77C57.06 600.655 55.62 600.34 54.45 599.71C53.37 598.99 52.425 597.865 51.615 596.335L43.65 581.62V629.14C43.65 630.85 43.245 632.11 42.435 632.92C41.715 633.64 40.5 634 38.79 634ZM163.615 565.15L157.27 585.67H178.465L172.12 565.15C171.76 564.34 171.355 563.755 170.905 563.395C170.545 563.035 170.095 562.855 169.555 562.855H166.18C165.64 562.855 165.145 563.035 164.695 563.395C164.335 563.755 163.975 564.34 163.615 565.15ZM155.92 629.14C155.92 630.85 155.515 632.11 154.705 632.92C153.985 633.64 152.77 634 151.06 634H131.215C129.505 634 128.245 633.64 127.435 632.92C126.715 632.11 126.355 630.85 126.355 629.14V593.5C126.355 590.8 126.76 587.695 127.57 584.185C128.47 580.675 129.82 576.58 131.62 571.9L143.365 541.255C143.905 539.725 144.715 538.6 145.795 537.88C146.965 537.16 148.45 536.8 150.25 536.8H186.565C188.275 536.8 189.67 537.16 190.75 537.88C191.92 538.6 192.775 539.725 193.315 541.255L205.06 571.9C206.86 576.58 208.165 580.675 208.975 584.185C209.875 587.695 210.325 590.8 210.325 593.5V629.14C210.325 630.85 209.92 632.11 209.11 632.92C208.39 633.64 207.175 634 205.465 634H185.08C183.28 634 181.93 633.64 181.03 632.92C180.22 632.11 179.815 630.85 179.815 629.14V610.24H155.92V629.14ZM257.504 561.1V578.38H267.629C269.969 578.38 271.544 577.795 272.354 576.625C273.164 575.365 273.569 573.835 273.569 572.035V567.445C273.569 565.645 273.164 564.16 272.354 562.99C271.544 561.73 269.969 561.1 267.629 561.1H257.504ZM252.644 634H231.854C230.144 634 228.884 633.64 228.074 632.92C227.354 632.11 226.994 630.85 226.994 629.14V541.66C226.994 539.95 227.354 538.735 228.074 538.015C228.884 537.205 230.144 536.8 231.854 536.8H276.809C286.889 536.8 293.819 538.915 297.599 543.145C301.469 547.285 303.404 552.685 303.404 559.345V565.555C303.404 569.335 302.819 572.575 301.649 575.275C300.569 577.885 298.634 579.775 295.844 580.945C300.704 581.485 304.619 583.465 307.589 586.885C310.649 590.305 312.179 594.85 312.179 600.52V629.14C312.179 630.85 311.774 632.11 310.964 632.92C310.244 633.64 309.029 634 307.319 634H286.394C284.684 634 283.424 633.64 282.614 632.92C281.894 632.11 281.534 630.85 281.534 629.14V608.485C281.534 606.505 281.129 605.065 280.319 604.165C279.599 603.175 278.294 602.68 276.404 602.68H257.504V629.14C257.504 630.85 257.099 632.11 256.289 632.92C255.569 633.64 254.354 634 252.644 634ZM391.327 634H358.387C347.137 634 338.767 631.75 333.277 627.25C327.877 622.75 325.177 615.82 325.177 606.46V564.475C325.177 555.115 327.877 548.185 333.277 543.685C338.767 539.095 347.137 536.8 358.387 536.8H391.327C393.037 536.8 394.252 537.205 394.972 538.015C395.782 538.735 396.187 539.95 396.187 541.66V557.995C396.187 559.705 395.782 560.965 394.972 561.775C394.252 562.495 393.037 562.855 391.327 562.855H364.192C361.402 562.855 359.332 563.44 357.982 564.61C356.632 565.69 355.957 567.355 355.957 569.605V601.735C355.957 603.985 356.632 605.65 357.982 606.73C359.332 607.72 361.402 608.215 364.192 608.215H391.327C393.037 608.215 394.252 608.62 394.972 609.43C395.782 610.15 396.187 611.365 396.187 613.075V629.14C396.187 630.85 395.782 632.11 394.972 632.92C394.252 633.64 393.037 634 391.327 634ZM478.932 634H416.292C414.582 634 413.322 633.64 412.512 632.92C411.792 632.11 411.432 630.85 411.432 629.14V541.66C411.432 539.95 411.792 538.735 412.512 538.015C413.322 537.205 414.582 536.8 416.292 536.8H478.932C480.642 536.8 481.857 537.205 482.577 538.015C483.387 538.735 483.792 539.95 483.792 541.66V557.455C483.792 559.165 483.387 560.425 482.577 561.235C481.857 561.955 480.642 562.315 478.932 562.315H441.672V572.71H467.997C469.707 572.71 470.922 573.115 471.642 573.925C472.452 574.645 472.857 575.86 472.857 577.57V592.015C472.857 593.725 472.452 594.985 471.642 595.795C470.922 596.515 469.707 596.875 467.997 596.875H441.672V608.485H478.932C480.642 608.485 481.857 608.89 482.577 609.7C483.387 610.42 483.792 611.635 483.792 613.345V629.14C483.792 630.85 483.387 632.11 482.577 632.92C481.857 633.64 480.642 634 478.932 634Z" fill="#1F2935"/>
</g>
<defs>
<clipPath id="clip0_29001_13">
<rect width="495" height="634" fill="white"/>
</clipPath>
</defs>
</svg>
